<svg xmlns="http://www.w3.org/2000/svg" width="186.17" height="30.01" viewBox="0 0 186.17 30.01"><path d="M28.7,22.05c-4.35,0-7.7-2.28-7.76-6.23h4.49a2.87,2.87,0,0,0,3.17,2.79c2,0,3.15-1.05,3.15-2.55,0-4.52-10.78-1.8-10.75-9.37C21,2.92,24.05.64,28.37.64s7.21,2.19,7.48,6H31.24a2.76,2.76,0,0,0-3-2.49c-1.65-.06-2.88.75-2.88,2.46,0,4.19,10.72,1.86,10.72,9.22C36.09,19.09,33.46,22.05,28.7,22.05Z" fill="#3f3488"/><path d="M45.78,22.11a8.12,8.12,0,0,1-8.42-8.56A8.2,8.2,0,0,1,45.9,5a8.19,8.19,0,0,1,8.53,8.57A8.29,8.29,0,0,1,45.78,22.11Zm0-3.65c2.21,0,4.34-1.62,4.34-4.91s-2.07-4.92-4.28-4.92-4.23,1.59-4.23,4.92S43.53,18.46,45.78,18.46Z" fill="#3f3488"/><path d="M67.82,12.68c0-2.67-1.46-4.11-3.68-4.11S60.4,10,60.4,12.68v9.16H56.21V5.25H60.4V7.32A6.19,6.19,0,0,1,65.4,5C69.26,5,72,7.53,72,12.11v9.73h-4.2Z" fill="#3f3488"/><path d="M81.19,5a6.48,6.48,0,0,1,5.48,2.64V5.25h4.22V22c0,4.49-2.75,8.05-8.2,8.05-4.67,0-7.94-2.33-8.36-6.13H78.5c.42,1.49,2,2.48,4.07,2.48,2.3,0,4.1-1.32,4.1-4.4V19.38a6.54,6.54,0,0,1-5.48,2.73c-4.22,0-7.58-3.44-7.58-8.62S77,5,81.19,5Zm1.08,3.69c-2.25,0-4.37,1.67-4.37,4.82s2.12,4.94,4.37,4.94,4.4-1.74,4.4-4.88S84.58,8.67,82.27,8.67Z" fill="#3f3488"/><path d="M100,22.11c-4.16,0-7.07-2.43-7.25-5.51H97a2.76,2.76,0,0,0,3,2.22c1.65,0,2.54-.75,2.54-1.71,0-3-9.37-1.08-9.37-7.16,0-2.75,2.46-5,6.56-5s6.44,2.19,6.68,5.48h-4c-.12-1.29-1.13-2.16-2.78-2.16s-2.37.63-2.37,1.59c0,3,9.2,1.14,9.32,7.22C106.57,20,104.08,22.11,100,22.11Z" fill="#3f3488"/><path d="M109.36,8.69h-2V5.25h2V1.15h4.22v4.1h3.72V8.69h-3.72v8c0,1.11.45,1.59,1.77,1.59h2v3.53h-2.64c-3.17,0-5.3-1.35-5.3-5.15Z" fill="#3f3488"/><path d="M125.52,5A6.57,6.57,0,0,1,131,7.62V5.25h4.22V21.84H131V19.42a6.57,6.57,0,0,1-5.51,2.69c-4.2,0-7.55-3.44-7.55-8.62S121.29,5,125.52,5Zm1.07,3.69c-2.24,0-4.37,1.67-4.37,4.82s2.13,4.94,4.37,4.94S131,16.69,131,13.55,128.9,8.67,126.59,8.67Z" fill="#3f3488"/><path d="M138.67,8.69h-2V5.25h2V1.15h4.23v4.1h3.71V8.69H142.9v8c0,1.11.44,1.59,1.76,1.59h2v3.53H144c-3.17,0-5.3-1.35-5.3-5.15Z" fill="#3f3488"/><path d="M150.18,22.05a2.46,2.46,0,1,1,2.55-2.46A2.47,2.47,0,0,1,150.18,22.05Z" fill="#3f3488"/><path d="M170.47,21.84h-4.22v-2.1a6.11,6.11,0,0,1-4.94,2.31c-3.86,0-6.65-2.52-6.65-7.07V5.25h4.19v9.13c0,2.67,1.47,4.11,3.69,4.11s3.71-1.44,3.71-4.11V5.25h4.22Z" fill="#3f3488"/><path d="M179.65,22.11c-4.17,0-7.07-2.43-7.25-5.51h4.22a2.76,2.76,0,0,0,3,2.22c1.64,0,2.54-.75,2.54-1.71,0-3-9.37-1.08-9.37-7.16,0-2.75,2.46-5,6.56-5s6.44,2.19,6.67,5.48h-4c-.12-1.29-1.14-2.16-2.78-2.16s-2.37.63-2.37,1.59c0,3,9.2,1.14,9.31,7.22C186.17,20,183.69,22.11,179.65,22.11Z" fill="#3f3488"/><path d="M13.07,2.77,11.3,1.05A1.6,1.6,0,0,0,8.58,2.2V16.25a2.45,2.45,0,0,1-.11.71.54.54,0,0,1,0,.1,2.91,2.91,0,0,1-.22.51l-.08.13a2.18,2.18,0,0,1-.33.42l-.09.1s-.07.08-.11.11a2.7,2.7,0,0,1-.31.2.39.39,0,0,1-.1.08h0L4.59,20.07l0-1.41a.18.18,0,0,1-.07-.05,2,2,0,0,1-.26-.18,1.81,1.81,0,0,1-.34-.28L3.78,18a3.3,3.3,0,0,1-.3-.43l-.08-.18a2.55,2.55,0,0,1-.18-.53s0,0,0-.06a1,1,0,0,1,0-.17,1.86,1.86,0,0,1,0-.34,2.6,2.6,0,0,1,.1-.68.25.25,0,0,1,0-.07,2.35,2.35,0,0,1,.17-.44l.07-.14a2.54,2.54,0,0,1,.23-.34s0-.06.06-.08l.06-.07a2.73,2.73,0,0,1,.25-.23l.19-.16.21-.13a2.64,2.64,0,0,1,.29-.15l.08,0a2.79,2.79,0,0,1,1-.2h.89V10.9h-.7a5.66,5.66,0,0,0-2.77.66,5.41,5.41,0,0,0-2,7.44,4.83,4.83,0,0,0,2,1.94,5.71,5.71,0,0,0,2.63.65,5.37,5.37,0,0,0,4.75-2.85,5.62,5.62,0,0,0,.6-2.64V6.22a.53.53,0,0,1,1-.27,11.2,11.2,0,0,1,1.07,5.2v4.3a.23.23,0,0,0,.39.17c.85-.91,2.75-3.24,2.75-5.93C16.4,6.22,15.14,4.77,13.07,2.77Z" fill="#3f3488" stroke="#3f3488" stroke-miterlimit="10" stroke-width="0.7"/></svg>